# xmcd CD database file
#
# Track frame offsets:
#	150
#	18329
#	34221
#	52368
#
# Disc length: 909 seconds
#
# Revision: 0
# Processed by: cddbd v1.5PL3 Copyright (c) Steve Scherf et al.
# Submitted via: CDex 1.51
#
DISCID=32038b04
DTITLE=SUIKEN - 未知／道２
DYEAR=2002
DGENRE=Hip Hop
TTITLE0=未知[Original Version]
TTITLE1=道２[Original Version]
TTITLE2=未知[Instrumental Version]
TTITLE3=道２[Instrumental Version]
EXTD=YEAR: 2002
EXTT0=
EXTT1=
EXTT2=
EXTT3=
PLAYORDER=
